<svg width="20" height="20" viewBox="0 0 20 20" fill="none" xmlns="http://www.w3.org/2000/svg">
<path d="M10.367 5.82698C10.3186 7.00078 9.78567 8.06046 8.67146 8.98972C8.25969 9.33208 7.82369 9.65814 7.3877 9.96789C6.83059 10.3755 6.3946 10.8319 6.12816 11.3536C5.78905 12.0383 5.47416 12.7394 5.13506 13.4241C5.06239 13.5708 5.01395 13.7338 4.89284 13.8643C4.77173 13.9947 4.60217 14.1088 4.43262 14.2066C4.09351 14.3696 3.77863 14.3207 3.60907 14.0599C3.46374 13.848 3.39108 13.6197 3.36685 13.3915C3.29419 12.8046 3.46374 12.2177 3.60907 11.6308C3.85129 10.5222 4.57795 9.57662 5.74061 8.77779C6.1766 8.46803 6.6126 8.15828 6.97593 7.81592C7.84792 7.04969 8.1628 6.18564 7.96903 5.22378C7.62992 3.5935 5.35305 3.23484 3.87551 3.67501C3.1973 3.87065 2.61597 4.1641 2.05887 4.49015C1.86509 4.60427 1.69554 4.71839 1.47754 4.81621C1.16265 4.96293 0.823547 4.97924 0.484439 4.86512C0.12111 4.73469 0 4.50645 0 4.24561C0.024222 3.95216 0.193776 3.70762 0.460217 3.47938C1.30799 2.77836 2.37375 2.30558 3.65752 2.07734C6.75793 1.55565 9.66456 2.84357 10.1974 4.96293C10.2943 5.25638 10.3186 5.54983 10.367 5.82698Z" fill="#222222"/>
<path d="M18.966 6.13683C18.6027 8.12577 18.2151 10.0984 17.8034 12.0873C17.658 12.7884 17.4158 13.4894 17.1978 14.1904C17.1252 14.4023 17.004 14.598 16.8587 14.7773C16.6407 15.0545 16.2532 15.1686 15.8656 15.1197C15.4538 15.0708 15.1632 14.8425 15.139 14.5165C15.1147 14.2719 15.1147 14.0274 15.1632 13.7828C15.3812 12.3645 15.6234 10.9462 15.8656 9.52781C16.3743 6.72373 16.9072 3.91965 17.44 1.11557C17.44 0.985146 17.4643 0.871027 17.5127 0.740604C17.6338 0.463457 17.9487 0.267823 18.3605 0.251521C18.7965 0.235218 19.1356 0.349337 19.3294 0.626485C19.4262 0.740604 19.4989 0.903632 19.4989 1.03405C19.5231 1.37641 19.2082 4.7837 18.966 6.13683Z" fill="#222222"/>
<path d="M5.66802 18.1848C5.66802 18.7065 4.9898 19.3097 4.23892 19.4238C3.80293 19.489 3.41537 19.4401 3.07627 19.2445C2.30116 18.8206 2.03472 17.8588 2.54338 17.2882C2.66449 17.1414 2.83405 17.011 3.02782 16.9132C5.2078 16.0981 5.66802 17.7283 5.66802 18.1848Z" fill="#222222"/>
<path d="M17.5123 18.543C17.5123 19.0484 17.052 19.5049 16.3981 19.6679C15.7441 19.8473 15.1627 19.7168 14.6541 19.4234C14.3392 19.2277 14.2423 18.9669 14.3392 18.6898C14.4603 18.2822 14.7994 17.9724 15.3081 17.7605C15.7925 17.5649 16.2769 17.5649 16.7614 17.7605C17.27 17.9398 17.488 18.2333 17.5123 18.543Z" fill="#222222"/>
</svg>
