<svg width="20" height="20" viewBox="0 0 20 20" fill="none" xmlns="http://www.w3.org/2000/svg">
<path d="M7.50373 8.91625C7.50373 10.4359 7.47793 12.2879 7.21995 14.1636C7.03936 15.4933 6.67818 16.7754 5.93002 17.9626C5.64624 18.39 5.31086 18.7936 4.89809 19.126C3.81455 19.9808 2.44723 19.9571 1.3895 19.0548C0.925124 18.6749 0.641341 18.2 0.434953 17.6777C0.176969 16.9891 0.0737748 16.2531 0.0479764 15.517C-0.0810159 12.7865 0.0479764 10.056 0.460752 7.34917C0.615542 6.37568 0.82193 5.40219 1.18311 4.45244C1.44109 3.76387 1.77647 3.12279 2.24084 2.55294C2.70522 1.98309 3.29858 1.55571 4.07254 1.36576C4.43371 1.29453 4.76909 1.31827 5.13027 1.36576C6.11061 1.53196 6.67818 2.05432 6.98776 2.9091C7.27154 3.62141 7.40054 4.35746 7.42633 5.09352C7.45213 6.25696 7.47793 7.4204 7.50373 8.91625ZM5.90422 7.51538C5.93002 7.4204 5.93002 7.34917 5.93002 7.27794C5.93002 6.54188 5.95582 5.80583 5.93002 5.09352C5.90422 4.61864 5.82683 4.14377 5.74943 3.69264C5.69784 3.43146 5.54305 3.17028 5.43985 2.9091C5.23347 2.43422 4.48531 2.29176 4.04674 2.62417C3.73716 2.86161 3.47917 3.12279 3.32438 3.4552C3.09219 3.90633 2.88581 4.38121 2.73102 4.85608C2.34404 6.20947 2.16345 7.58661 2.03446 8.96374C1.90547 10.4121 1.82807 11.8842 1.77647 13.3563C1.72488 14.401 1.75067 15.4695 1.90547 16.5142C1.95706 16.8941 2.06026 17.274 2.24084 17.6302C2.75681 18.5325 3.60816 18.6274 4.30472 17.8439C4.6143 17.5115 4.79489 17.1316 4.94968 16.7279C5.23346 16.0156 5.38826 15.2796 5.49145 14.5435C5.54305 14.2348 5.56884 13.9262 5.59464 13.6175C5.23346 13.4513 4.87229 13.3326 4.56271 13.1664C3.50497 12.6203 3.0148 11.7892 3.11799 10.6495C3.16959 9.96098 3.37598 9.3199 3.76295 8.70256C4.25312 7.99025 4.87229 7.49163 5.90422 7.51538Z" fill="#222222"/>
<path d="M11.7603 13.2853C11.8634 11.457 12.0182 9.60502 12.2762 7.8005C12.4568 6.61331 12.6116 5.44987 12.8696 4.28643C12.9986 3.59786 13.2566 2.93304 13.5145 2.26821C13.6435 1.88832 13.8757 1.53216 14.1079 1.19975C14.2885 0.962311 14.5207 0.772361 14.7787 0.582412C15.0367 0.368719 15.372 0.25 15.7074 0.25C16.791 0.297487 17.8229 0.463693 18.4163 1.46093C18.7258 1.98329 18.9838 2.50565 19.1128 3.0755C19.3708 4.14397 19.4998 5.23618 19.4998 6.32839C19.4998 8.82148 19.2676 11.2908 18.571 13.7127C18.2873 14.7337 17.8745 15.6834 17.2037 16.5144C16.8683 16.9181 16.5072 17.2742 16.0686 17.5829C14.3917 18.7226 12.302 17.6541 11.915 16.1345C11.8376 15.7784 11.7861 15.4222 11.7861 15.0661C11.7603 14.4962 11.7603 13.8789 11.7603 13.2853ZM17.8745 7.25439C17.9003 7.06444 17.9261 6.94572 17.9003 6.82701C17.8229 5.85351 17.7971 4.88002 17.6681 3.90653C17.6165 3.43166 17.4359 2.95678 17.2811 2.50565C17.1263 2.05452 16.7394 1.74585 16.275 1.5559C16.017 1.43719 15.7848 1.48467 15.6042 1.67462C15.4752 1.81708 15.3462 1.98329 15.243 2.1495C15.0883 2.48191 14.9335 2.81432 14.8303 3.14673C14.5207 4.07274 14.3659 5.04623 14.2111 6.01972C13.9015 8.03793 13.6435 10.0799 13.5145 12.1219C13.4372 13.1666 13.4114 14.235 13.3598 15.2798C13.3598 15.5172 13.3856 15.7784 13.463 15.9921C13.7209 16.7281 14.5723 16.9656 15.243 16.4907C15.3978 16.3957 15.5526 16.2533 15.6558 16.1108C15.888 15.8259 16.1202 15.5409 16.3008 15.2085C16.7394 14.4487 16.9715 13.6177 17.1779 12.7629C17.2037 12.6917 17.1779 12.6205 17.1779 12.5255C16.9715 12.478 16.791 12.4305 16.5846 12.383C16.1718 12.2881 15.7848 12.1219 15.4494 11.8607C14.8045 11.3858 14.4949 10.7685 14.5723 10.0087C14.6497 9.08266 15.1141 8.29912 15.888 7.68178C16.3524 7.32562 16.8683 7.13567 17.4875 7.18316C17.6165 7.25439 17.7197 7.25439 17.8745 7.25439Z" fill="#222222"/>
</svg>
