<svg width="30" height="30" viewBox="0 0 30 30" fill="none" xmlns="http://www.w3.org/2000/svg">
<path d="M18.2209 29.2504C14.9098 29.1494 12.1824 28.4703 9.57283 27.2694C8.74226 26.8878 7.8724 26.5959 7.02499 26.2704C5.9026 25.8383 4.9205 25.1761 4.41542 24.0818C3.25935 21.5732 2.04716 19.0703 1.14925 16.4607C0.31306 14.0307 0.829362 11.5951 2.33337 9.51867C3.50067 7.90803 4.20778 6.17954 4.71847 4.27147C5.34701 1.93127 7.08111 0.6349 9.43815 0.129821C10.5213 -0.10027 11.5483 -0.0273143 12.5809 0.371137C13.5405 0.741528 14.5338 0.80326 15.5384 0.528272C17.4016 0.0175816 19.102 0.545108 20.7687 1.34762C21.5488 1.71801 22.3457 2.11085 23.1819 2.29605C25.9374 2.90214 27.3516 4.71481 27.7276 7.35245C27.9128 8.66004 27.8062 10.0238 27.7108 11.3538C27.6266 12.5155 27.7501 13.6154 28.1204 14.7098C29.0801 17.5494 28.9342 20.3274 27.621 23.0379C26.8185 24.6991 25.5053 25.8215 23.9115 26.6801C22.7947 27.2806 21.6835 27.8979 20.6004 28.5601C19.7249 29.0933 18.7877 29.2785 18.2209 29.2504ZM18.1928 28.2066C19.0571 28.2178 19.7137 27.9428 20.5948 27.2638C21.1896 26.8092 21.8968 26.4949 22.5534 26.1245C23.3278 25.6924 24.237 25.4006 24.8655 24.8113C27.5368 22.2972 28.1429 19.0759 27.245 15.7031C26.6669 13.5256 26.493 11.438 26.7455 9.23807C27.071 6.36474 25.4996 4.20412 22.7442 3.44089C21.7901 3.17713 20.8754 2.72817 19.9775 2.29605C18.827 1.74607 17.6429 1.26905 16.3746 1.5721C14.7246 1.96494 13.1533 1.84148 11.5707 1.30834C11.0544 1.13437 10.4708 0.977231 9.94322 1.03896C7.82189 1.28589 6.33472 2.53736 5.80158 4.52401C5.22355 6.68462 4.25267 8.56463 3.05171 10.4222C1.80585 12.3527 1.47474 14.5526 2.36143 16.7694C3.2369 18.9636 4.19094 21.1299 5.13375 23.2961C5.59955 24.3736 6.4189 25.0919 7.52446 25.5016C8.56829 25.8888 9.62334 26.2536 10.6391 26.7082C12.8783 27.7015 15.2522 28.0382 18.1928 28.2066Z" fill="#222222"/>
<path d="M15.7966 20.6478C13.4171 20.7488 11.234 20.3728 9.53359 18.5994C9.24176 18.2963 8.96678 17.9596 8.79281 17.5836C8.70863 17.4096 8.63567 17.0785 8.96117 16.899C9.1632 16.7867 9.42135 16.9046 9.5841 17.028C9.99377 17.3311 10.3361 17.7295 10.7514 18.0326C12.7044 19.4749 14.865 19.9238 17.2052 19.2392C18.3893 18.8968 19.2143 18.027 19.9438 17.0729C20.2132 16.725 20.5106 16.1975 20.9989 16.5622C21.4871 16.9326 21.0494 17.3816 20.7968 17.7183C19.5229 19.4131 17.9852 20.659 15.7966 20.6478Z" fill="#222222"/>
<path d="M23.2549 11.4325C23.2493 12.1172 22.7274 12.6672 22.1101 12.656C21.4703 12.6447 20.9372 12.0779 20.954 11.4325C20.9708 10.7254 21.4647 10.1642 22.0652 10.1755C22.7386 10.1811 23.2661 10.7367 23.2549 11.4325Z" fill="#222222"/>
<path d="M8.57962 12.3412C8.57401 13.0259 8.0521 13.5759 7.43478 13.5646C6.79501 13.5534 6.26187 12.9866 6.27871 12.3412C6.29554 11.6341 6.7894 11.0729 7.38988 11.0841C8.05771 11.0898 8.58523 11.6453 8.57962 12.3412Z" fill="#222222"/>
</svg>
