<svg width="30" height="30" viewBox="0 0 30 30" fill="none" xmlns="http://www.w3.org/2000/svg">
<g clip-path="url(#clip0_6673_50351)">
<path d="M21.4496 7.9349C21.294 9.48969 21.1821 10.7864 21.0266 12.0768C20.9395 12.7818 20.6533 13.3924 19.8695 13.5623C19.2164 13.7008 18.5383 13.3357 18.1464 12.5237C17.7669 11.7432 17.4932 10.906 17.2071 10.0814C16.3797 7.71459 15.1045 5.61216 13.5245 3.69228C13.033 3.09429 12.5478 2.49629 11.9818 1.80388C11.8573 2.22562 11.7578 2.56553 11.6583 2.90545C10.6008 6.60043 10.24 10.3646 10.4017 14.1981C10.4515 15.4382 10.3084 16.7034 10.1342 17.9372C10.0223 18.7303 9.72989 19.536 8.78435 19.7123C8.1063 19.8381 7.43447 19.2716 7.02391 18.2393C6.7502 17.5469 6.5698 16.8104 6.32098 16.1054C6.18412 15.7088 5.98506 15.3374 5.80466 14.922C3.52169 17.7294 5.26347 26.9889 8.30536 28.3423C8.3178 25.8622 9.44373 23.8101 10.775 21.8713C12.6598 19.1268 13.6862 16.0928 14.0283 12.7944C14.0532 12.5489 14.103 12.2971 14.1465 12.0579C14.358 10.9375 14.8121 10.7549 15.6395 11.5858C16.1745 12.1209 16.6472 12.7818 16.9583 13.4679C18.501 16.8293 19.1417 20.3165 18.0966 23.98C17.9784 24.3829 17.711 24.9494 17.91 25.239C18.2584 25.6796 18.8058 24.9242 18.924 24.6158C19.235 23.8038 19.4279 22.954 19.6767 22.1168C19.8322 21.5944 19.9255 21.0215 20.2054 20.5683C20.4232 20.2158 20.8959 19.7815 21.2194 19.813C21.5553 19.8444 22.0219 20.3291 22.1338 20.7068C22.955 23.5205 22.5693 26.0951 20.0064 28.2793C18.6876 29.4061 17.064 29.7712 15.4031 29.9915C13.5307 30.237 11.6832 30.3125 9.80453 29.8782C8.90876 29.6704 7.97567 29.532 7.43447 29.3305C6.89327 29.1291 6.43295 28.7199 6.21522 28.38C3.44704 24.0556 2.99293 19.4982 4.93999 14.7206C5.34434 13.7323 6.12192 13.5246 6.80619 14.3429C7.31006 14.9472 7.59621 15.7592 7.91346 16.5146C8.13118 17.0433 8.24937 17.6161 8.39867 18.1701C8.58529 18.8625 8.859 18.9695 9.04561 18.8499C9.27578 18.7806 9.41263 17.9434 9.38775 17.1063C9.3442 15.7277 9.36909 14.3429 9.22601 12.9769C8.80923 8.97352 9.77343 5.22189 11.1793 1.5458C11.5276 0.626773 11.9258 0.513468 12.6722 1.15553C15.7328 3.78041 17.9411 6.97811 18.9426 10.9563C19.0982 11.5606 19.1479 12.2405 19.9068 12.7189C19.9815 12.1335 20.0437 11.6488 20.1121 11.1704C20.2863 9.98697 20.3983 8.79098 20.6595 7.63276C20.8213 6.93405 21.3003 6.78927 21.8041 7.29284C22.4635 7.95378 23.1105 8.68397 23.5397 9.50857C25.1384 12.593 25.6858 15.9417 25.6734 19.3912C25.6609 22.1042 25.1633 24.7354 23.9316 27.1589C23.5148 27.9835 22.8119 28.6633 22.2147 29.3872C21.9472 29.7145 21.3376 29.6075 21.6175 28.8773C21.6424 28.8144 21.6735 28.7388 21.7171 28.6759C24.0311 25.5348 24.2613 21.8587 24.2924 18.1575C24.3173 15.2053 23.8943 12.3097 22.532 9.64076C22.2458 9.09312 21.8788 8.60214 21.4496 7.9349ZM21.1136 20.8453C20.7466 22.0791 20.4605 23.0988 20.1308 24.1122C19.8695 24.9117 19.4714 25.6355 18.6876 26.0321C17.7794 26.4979 16.8961 25.9818 16.8463 24.9494C16.8276 24.5277 16.8463 24.0934 16.9272 23.6842C17.5617 20.3984 17.2631 17.2133 15.9941 14.1226C15.7763 13.5938 15.4591 13.1091 15.1418 12.53C15.0299 12.7189 14.949 13.405 14.9366 13.7008C14.8557 15.9417 14.6069 18.1575 13.4436 20.134C12.7469 21.3111 11.9631 22.4378 11.2042 23.5835C10.3644 24.8613 9.61791 26.1832 9.34421 27.7191C9.15759 28.7703 9.23845 28.8207 10.2338 29.0787C12.3426 29.6201 14.4078 29.2739 16.4668 28.8584C18.812 28.3863 20.2739 26.8252 21.1448 24.6725C21.6237 23.4954 21.4869 22.2742 21.1136 20.8453Z" fill="#222222"/>
</g>
<defs>
<clipPath id="clip0_6673_50351">
<rect width="30" height="30" fill="white"/>
</clipPath>
</defs>
</svg>
