<svg width="30" height="30" viewBox="0 0 30 30" fill="none" xmlns="http://www.w3.org/2000/svg">
<path d="M27.9056 8.36526C28.0905 8.56803 28.1143 8.86621 27.9712 9.10475C27.84 9.3254 27.7267 9.51624 27.5955 9.69514C26.2358 11.5796 25.4903 12.5636 24.1485 14.46C23.8086 14.9371 22.9856 16.3982 22.6696 16.8992C22.6636 16.9051 22.6636 16.9111 22.6576 16.917C22.3714 17.3464 21.6677 17.3166 21.4411 16.8455C21.4411 16.8455 21.4411 16.8395 21.4351 16.8395C21.1011 16.106 20.8328 15.3486 20.5227 14.6032C19.6699 12.5457 18.4831 10.7626 16.5092 9.59376C15.7936 9.17035 15.7816 8.86024 16.3362 8.24599C16.545 8.01938 16.7537 7.7868 16.9803 7.58403C19.1689 5.63394 20.6777 3.22466 21.8048 0.541043C21.8764 0.374063 22.0195 0.242864 22.1746 0.111665C22.3774 -0.0553153 22.6696 -0.0314607 22.8485 0.159374C22.9976 0.314427 23.1347 0.481407 23.2182 0.666279C23.4031 1.09566 23.4508 1.57871 23.5641 2.0379C24.1724 4.53664 25.5261 6.52848 27.5836 8.06112C27.6969 8.14461 27.7983 8.25196 27.9056 8.36526ZM22.4251 2.37783C21.7154 3.55862 21.119 4.77519 20.308 5.83671C19.4791 6.91611 18.4414 7.83451 17.4932 8.83042C19.9025 10.2736 21.2979 12.5577 22.1388 15.3605C23.3733 12.8081 25.0789 10.7805 26.9514 8.8841C23.9935 6.62986 23.2898 5.61009 22.4251 2.37783Z" fill="#222222"/>
<path d="M5.4169 28.9458C4.87422 27.4072 4.4031 25.8387 3.80674 24.324C3.22231 22.8569 2.35162 21.5509 1.09927 20.5431C0.640074 20.1733 0.652001 19.8394 1.02771 19.4219C3.13882 17.1259 4.76091 14.5258 5.92381 11.6335C6.04904 11.3234 6.38301 10.8284 6.61558 10.8284C7.24773 10.6793 7.47434 11.9138 7.4982 12.0271C8.02895 14.9373 9.82996 17.0544 11.8516 19.0343C12.5076 19.6783 12.5613 19.8751 11.9172 20.4954C9.49003 22.8212 7.87986 25.6837 6.49631 28.6953C6.06097 29.7449 5.4825 29.1306 5.4169 28.9458ZM1.82683 19.8334C3.11496 20.6504 3.96775 21.7417 4.58797 22.9762C5.19029 24.1868 5.63159 25.469 6.13253 26.6975C7.28947 24.1093 8.85193 21.7179 11.2254 19.899C8.92946 18.092 7.11653 16.0286 6.56191 13.0707C5.56599 15.7305 3.98564 17.9429 1.82683 19.8334Z" fill="#222222"/>
<path d="M21.7154 22.5284C20.3975 24.2996 19.5924 26.3212 18.8529 28.3786C18.8052 28.5098 18.6501 29.2553 18.0836 29.2493C17.9226 29.2493 17.6542 28.9929 17.5528 28.7901C17.1056 27.8777 16.8253 26.8579 16.2587 26.035C15.5908 25.0569 14.6724 24.2518 13.8972 23.3513C13.7838 23.2201 13.7421 22.922 13.8137 22.7609C13.9508 22.4628 14.1953 22.2242 14.3862 21.9499C15.3582 20.5186 16.3124 19.0755 17.3143 17.668C17.523 17.3758 17.9345 17.024 18.179 17.024C18.7873 17.018 18.9066 17.4951 19.0139 17.835C19.5029 19.3975 20.3438 20.7035 21.5663 21.7829C22.0017 22.1884 21.7691 22.4568 21.7154 22.5284ZM15.0183 22.9399C16.4376 23.9477 17.4037 25.4028 17.9882 27.0309C18.8529 25.4446 19.7355 23.8284 20.642 22.1586C19.4254 21.3178 18.5786 19.7493 18.1909 18.5924C17.1294 20.0475 16.0798 21.4847 15.0183 22.9399Z" fill="#222222"/>
</svg>
