<svg width="27" height="30" viewBox="0 0 27 30" fill="none" xmlns="http://www.w3.org/2000/svg">
<path d="M19.6814 20.7574C19.9422 20.7106 20.1695 20.6705 20.3968 20.6371C22.028 20.3831 23.0575 21.4794 22.7166 23.1173C22.389 24.7218 21.4063 25.8918 20.1427 26.8411C17.1009 29.1208 13.5711 29.7291 9.88747 29.7157C8.8713 29.7091 8.45013 29.1876 8.68412 28.2049C9.62006 24.2873 11.0373 20.5702 13.6981 17.4816C14.3733 16.6928 15.3761 16.0443 16.3588 15.69C18.565 14.8877 20.477 16.5657 20.1494 18.8922C20.0692 19.5073 19.8486 20.1023 19.6814 20.7574ZM10.1616 28.2717C11.1644 28.1648 11.98 28.0912 12.7956 27.9843C15.3828 27.6433 17.7828 26.7876 19.7416 25.036C20.4369 24.4076 20.9517 23.5051 21.3327 22.636C21.6336 21.9541 21.2124 21.6132 20.4971 21.8739C19.8753 22.0945 19.3204 22.4889 18.6987 22.7095C18.3644 22.8299 17.843 22.9034 17.6224 22.7296C17.4151 22.5625 17.4151 22.021 17.4887 21.68C17.5689 21.2722 17.843 20.9112 18.0034 20.5168C18.2575 19.9017 18.5784 19.3 18.7054 18.6582C18.9661 17.3279 17.9566 16.4721 16.7399 17.0404C15.9711 17.4014 15.2157 17.963 14.6741 18.6114C12.3744 21.3992 11.3449 24.7954 10.1616 28.2717Z" fill="#222222"/>
<path d="M6.61144 7.46756C7.07273 7.11993 7.68109 6.60516 8.34962 6.1773C9.78696 5.25473 11.2711 5.80292 11.7458 7.42745C12.1669 8.88485 11.9797 10.3155 11.3848 11.706C10.1881 14.5206 8.44322 16.9941 6.62481 19.4209C6.0833 20.1362 5.11393 20.1763 4.57911 19.4343C3.79024 18.3379 3.04817 17.1947 2.43981 15.998C1.20971 13.5712 0.180173 11.0509 0.253711 8.26312C0.273767 7.50099 0.527808 6.6787 0.908871 6.01685C1.671 4.69985 3.36907 4.31878 4.56574 5.25473C5.43483 5.92994 6.08999 6.88594 6.61144 7.46756ZM5.39471 18.3914C5.93622 17.6292 6.47105 16.9941 6.88554 16.2855C7.95519 14.4871 9.08501 12.7088 9.96078 10.8102C10.3619 9.93444 10.6293 8.94502 10.2817 7.78846C10.1012 7.18678 9.76691 6.97954 9.17191 7.25363C8.30951 7.64807 7.89502 8.41019 7.52064 9.21911C7.28666 9.72051 7.32008 10.5161 6.55127 10.5094C5.76909 10.5027 5.76241 9.70714 5.49499 9.179C5.11393 8.42356 4.77966 7.62133 4.25153 6.97954C3.95069 6.61184 3.19525 6.25084 2.83424 6.38454C2.36627 6.55836 1.94509 7.18678 1.76459 7.70823C1.58409 8.22969 1.65094 8.87148 1.73785 9.43973C2.22588 12.7022 3.73007 15.53 5.39471 18.3914Z" fill="#222222"/>
<path d="M22.1544 4.51211C22.7561 4.43857 23.2307 4.33829 23.6987 4.3316C25.243 4.30486 26.1188 5.23412 26.0453 6.77843C25.965 8.35616 25.1895 9.55951 23.9193 10.4286C21.9204 11.7991 19.6942 12.6481 17.3142 13.0894C16.7326 13.1963 16.3917 13.1027 16.1577 12.3205C15.2752 9.42581 15.4424 6.55113 16.0975 3.68981C16.3114 2.76724 16.8396 1.87809 17.3945 1.08923C18.0296 0.186711 18.9989 -0.214407 20.1354 0.113173C21.3455 0.467494 21.9806 1.34327 22.141 2.53994C22.2279 3.16836 22.1544 3.81015 22.1544 4.51211ZM17.1939 11.5918C19.5806 11.0236 21.8268 10.2548 23.6853 8.67705C24.1065 8.31605 24.4207 7.75448 24.6079 7.21966C25.0425 5.97619 24.5344 5.3812 23.224 5.52159C22.9098 5.55501 22.5956 5.63524 22.2948 5.72215C21.0513 6.08315 20.7304 5.84917 20.6836 4.53885C20.6569 3.82352 20.6903 3.08814 20.5232 2.40623C20.229 1.20288 19.0524 0.908725 18.3304 1.89146C17.8156 2.59342 17.4346 3.46251 17.2273 4.31823C16.6591 6.70489 17.0268 9.1116 17.1939 11.5918Z" fill="#222222"/>
</svg>
