<svg width="30" height="30" viewBox="0 0 30 30" fill="none" xmlns="http://www.w3.org/2000/svg">
<path d="M11.7978 25.6371C11.1098 26.0514 10.3875 26.3177 9.68239 26.584C8.35814 27.1018 6.98229 27.1905 5.57204 26.8798C4.66054 26.6727 3.80064 26.3473 3.00953 25.8886C1.65087 25.0898 0.790968 23.995 0.41261 22.634C0.206232 21.9534 0.154638 21.2581 0.223431 20.548C0.326619 19.3645 0.601789 18.1957 1.06614 17.0714C1.3757 16.3317 1.78846 15.6364 2.3732 15.0298C2.57957 14.8079 2.83754 14.6008 3.07832 14.3641C3.00953 14.3197 2.94073 14.2901 2.88914 14.2457C0.756572 13.1658 -0.137731 11.5384 0.0170524 9.45246C0.0342505 9.18617 0.103044 8.90508 0.206233 8.65358C1.10053 6.30133 2.92353 4.80713 5.77842 4.31893C6.79311 4.1414 7.825 4.18578 8.82249 4.45207C9.40722 4.61481 9.92317 4.85151 10.4047 5.19178C10.4907 5.25095 10.5767 5.31013 10.6455 5.35451C10.6455 5.35451 10.6627 5.35451 10.6971 5.36931C10.7315 5.31013 10.7659 5.25095 10.8003 5.19178C11.9353 2.54364 14.1883 0.975474 17.284 0.206184C18.5738 -0.104491 19.8809 -0.0749027 21.1363 0.368919C23.3205 1.13821 24.6104 2.57323 25.1435 4.52604C25.4187 5.57642 25.3843 6.6268 24.9371 7.63279C24.7823 8.00265 24.5588 8.3577 24.3008 8.68317C24.2664 8.72755 24.2492 8.77194 24.2148 8.83111C24.3008 8.84591 24.3696 8.87549 24.4212 8.87549C25.3843 8.99385 26.2098 9.3637 26.9493 9.89628C28.136 10.7543 28.9099 11.8195 29.3742 13.077C29.6838 13.9055 29.8386 14.7487 29.9418 15.6068C30.0106 16.2133 30.0278 16.8199 29.9418 17.4265C29.787 18.4768 29.357 19.4532 28.6347 20.3113C27.964 21.125 27.0353 21.5836 25.9002 21.7463C25.7454 21.7611 25.6079 21.7907 25.4359 21.8203C25.4531 21.909 25.4531 21.9682 25.4703 22.0422C25.6079 22.7375 25.5563 23.418 25.4187 24.0986C25.2123 25.1637 24.8167 26.1549 24.1632 27.087C23.6301 27.8415 22.9593 28.4776 22.0994 28.9806C21.1535 29.5428 20.1045 29.8387 18.9694 29.957C17.5419 30.1049 16.1833 29.8682 14.8934 29.2913C13.9303 28.8475 13.1392 28.2261 12.5717 27.4272C12.2277 26.939 11.9869 26.4064 11.8838 25.8443C11.8494 25.7999 11.8322 25.7407 11.7978 25.6371ZM1.82285 21.0362C1.82285 21.4652 1.85725 21.8943 1.97764 22.3085C2.25281 23.2997 2.83754 24.1134 3.80064 24.7347C4.59175 25.2377 5.46886 25.5632 6.41475 25.7703C6.82751 25.8591 7.25746 25.8739 7.67021 25.8591C8.37534 25.8295 9.02887 25.6667 9.6652 25.3856C10.2499 25.1341 10.8519 24.8827 11.4366 24.6459C11.557 24.6016 11.6774 24.5424 11.7978 24.5128C11.9525 24.4684 12.1073 24.4684 12.2277 24.572C12.3309 24.6607 12.4341 24.7051 12.5717 24.7199C12.7781 24.7495 12.8984 24.8679 12.9844 25.0158C13.0188 25.0898 13.0532 25.1637 13.0704 25.2377C13.1736 25.4744 13.2424 25.7259 13.3628 25.9626C13.7755 26.9094 14.5323 27.6195 15.5642 28.093C17.0776 28.7883 18.6598 28.8475 20.242 28.3149C21.4803 27.9154 22.3574 27.1609 22.9765 26.1697C23.3377 25.5928 23.5785 24.9862 23.7505 24.3501C23.9396 23.6104 24.0428 22.8707 23.9224 22.1162C23.888 21.8795 23.9052 21.628 23.9224 21.3913C23.9396 21.0806 24.1116 20.8735 24.49 20.7551C24.9199 20.622 25.3499 20.5332 25.7798 20.4592C26.5194 20.3409 27.0697 19.9858 27.4824 19.4532C27.792 19.0538 28.0156 18.6248 28.136 18.1514C28.2908 17.5596 28.3939 16.953 28.3767 16.3465C28.3596 16.0062 28.3424 15.6512 28.2908 15.3109C28.2048 14.6008 28.05 13.9055 27.8092 13.2249C27.4309 12.1746 26.7601 11.2721 25.7798 10.562C25.1091 10.0886 24.3696 9.74834 23.4753 9.76314C23.3721 9.76314 23.2689 9.74834 23.1657 9.73355C22.839 9.65958 22.6842 9.40808 22.753 9.1122C22.7702 9.03823 22.8046 8.97905 22.839 8.90508C23.0281 8.50564 23.2001 8.1062 23.3893 7.72156C24.1632 6.06463 23.9568 4.48166 22.8734 2.98746C21.8243 1.56724 19.7949 0.81274 17.9031 1.19738C15.3406 1.71518 13.4316 2.95788 12.3309 5.05863C12.2277 5.25095 12.1417 5.44328 12.0557 5.65039C11.8838 6.06463 11.7118 6.49365 11.5398 6.90789C11.4022 7.24815 11.0067 7.3665 10.6627 7.15938C10.5767 7.115 10.5079 7.04103 10.4391 6.96706C10.3359 6.8635 10.2499 6.75995 10.1639 6.65639C9.68239 6.09421 9.04606 5.73916 8.27215 5.54683C7.34345 5.32492 6.41475 5.35451 5.52045 5.59122C3.52547 6.1238 2.25281 7.30733 1.70247 9.00864C1.18652 10.3993 1.56488 11.6716 2.61397 12.7663C3.06112 13.2397 3.59426 13.6392 4.31658 13.8019C4.33378 13.8019 4.36818 13.8167 4.38537 13.8315C4.86692 14.009 5.00451 14.4381 4.69494 14.8079C4.60895 14.9115 4.50576 14.9854 4.40257 15.0742C3.61146 15.666 3.06112 16.4057 2.68276 17.2341C2.13242 18.462 1.87445 19.7343 1.82285 21.0362Z" fill="#222222"/>
<path d="M23.802 15.5328C23.7848 17.2193 23.1484 18.965 21.8414 20.5332C20.6031 22.0126 18.9865 23.0334 16.9227 23.4624C14.343 24.0098 12.004 23.5068 9.95747 22.0718C8.28926 20.9031 7.25737 19.3645 6.81022 17.5744C6.20828 15.1926 6.65543 12.9587 8.13447 10.8727C8.8224 9.8963 9.7167 9.08262 10.8518 8.47607C11.0754 8.35772 11.2989 8.25416 11.5225 8.1506C11.9181 7.97307 12.3308 7.83992 12.7264 7.6624C13.2079 7.44049 13.7411 7.35172 14.2914 7.29254C17.2667 6.95228 19.6916 7.85472 21.5834 9.80753C23.0452 11.3165 23.802 13.2545 23.802 15.5328ZM8.18607 15.5624C8.18607 16.0506 8.23766 16.5388 8.34085 17.0122C8.65042 18.4029 9.33834 19.6456 10.5422 20.6516C11.8149 21.7167 13.3455 22.2641 15.1341 22.2345C16.424 22.2197 17.6106 21.8647 18.6769 21.2433C19.7604 20.622 20.5859 19.7935 21.1878 18.8171C22.2025 17.175 22.4949 15.4293 22.0821 13.5948C21.8758 12.648 21.463 11.7751 20.8095 10.9763C19.0209 8.81633 16.0972 8.01745 13.3971 8.72757C13.2767 8.75715 13.1391 8.77195 13.0187 8.80154C12.8812 8.84592 12.7264 8.87551 12.5888 8.93468C11.9353 9.26015 11.3161 9.6448 10.783 10.1034C9.04597 11.6124 8.22046 13.4469 8.18607 15.5624Z" fill="#222222"/>
<path d="M19.5025 15.6807C19.4165 15.5032 19.3305 15.3404 19.2789 15.1777C19.2445 15.0446 19.2273 14.8966 19.2445 14.7635C19.2789 14.5859 19.3993 14.4528 19.6228 14.4084C19.8292 14.364 19.984 14.438 20.1216 14.5711C20.1388 14.6007 20.1732 14.6155 20.1904 14.6451C20.5343 15.0446 20.8783 15.444 21.2223 15.8286C21.377 16.0062 21.377 16.1393 21.2567 16.2725C21.1363 16.3908 20.9815 16.4352 20.8095 16.4056C20.6719 16.376 20.5343 16.3316 20.3796 16.302C20.328 16.4204 20.2592 16.524 20.2076 16.6423C19.984 17.1009 19.7432 17.5447 19.4337 17.9738C19.0553 18.4768 18.591 18.9206 18.0234 19.2904C17.2151 19.823 16.2864 20.1041 15.2717 20.1485C14.0334 20.1929 12.8812 19.9858 11.8321 19.4236C11.4193 19.2017 11.0238 18.965 10.5766 18.6987C10.5422 18.6987 10.439 18.7135 10.3359 18.6987C10.0435 18.6691 9.85431 18.4472 9.9403 18.1957C9.97469 18.1069 10.0263 18.0034 10.0951 17.9146C10.3359 17.5743 10.5938 17.2489 10.8518 16.9234C10.9206 16.8346 11.0238 16.7459 11.127 16.6867C11.4021 16.5388 11.7289 16.6719 11.7461 16.953C11.7633 17.0565 11.7289 17.1749 11.6945 17.2785C11.6257 17.456 11.5569 17.6483 11.4709 17.8406C11.5053 17.8702 11.5225 17.8998 11.5569 17.9294C12.3824 18.3584 13.2079 18.7579 14.171 18.891C15.908 19.1425 17.3011 18.7135 18.3674 17.4856C18.6597 17.1453 18.9005 16.7903 19.1069 16.4204C19.2273 16.1541 19.3649 15.9174 19.5025 15.6807Z" fill="#222222"/>
<path d="M18.1612 13.8462C18.1612 13.9941 18.1784 14.1273 18.1612 14.2752C18.144 14.5119 18.0064 14.6599 17.7829 14.7042C17.5421 14.7486 17.3357 14.6599 17.1981 14.4971C17.1293 14.4084 17.0605 14.3048 17.0089 14.2012C16.7338 13.6243 16.6478 13.0177 16.5962 12.3964C16.5962 12.2928 16.6134 12.1892 16.6478 12.1005C16.8026 11.7306 17.3529 11.6419 17.6453 11.9525C17.7313 12.0561 17.8001 12.1745 17.8517 12.3076C18.058 12.8106 18.1784 13.3136 18.1612 13.8462Z" fill="#222222"/>
<path d="M12.7263 14.4972C12.7263 14.6304 12.7263 14.7635 12.7263 14.8966C12.7263 15.0002 12.6919 15.1186 12.6747 15.2221C12.6231 15.3996 12.5027 15.5328 12.2792 15.5624C12.0384 15.592 11.8664 15.5032 11.746 15.3405C11.6944 15.2665 11.6428 15.1777 11.6256 15.089C11.4365 14.4824 11.3505 13.8759 11.3849 13.2545C11.3849 13.1509 11.4193 13.0326 11.4709 12.929C11.5568 12.7515 11.7288 12.6479 11.9696 12.6479C12.1932 12.6479 12.3652 12.7367 12.4683 12.8994C12.5199 12.9882 12.5715 13.0918 12.5887 13.1805C12.6403 13.6096 12.7435 14.0534 12.7263 14.4972Z" fill="#222222"/>
</svg>
